#!OML:ASF H:\Terrain\Patient Classification 1\Animal2\Wednesday\Animal2.ASF
:FULLY-SPECIFIED
:DEGREES
4227
root 23.9923 16.1464 -19.6846 -5.23222 -23.0078 -2.13978
lowerback 5.15975 0.997821 5.30046
upperback 2.0521 1.59476 2.68604
thorax -0.707941 0.800533 -0.295501
lowerneck 19.9336 16.4565 20.9354
upperneck -19.4762 23.6142 -29.5511
head -2.40285 13.3698 -13.6585
rclavicle -5.97985e-014 -4.45278e-014
rhumerus -19.1582 22.6046 -93.5004
rradius 134.712
rwrist 7.53355
rhand -28.7665 11.443
rfingers 7.12502
rthumb -2.12623 -18.5262
lclavicle -5.97985e-014 -4.45278e-014
lhumerus -27.4924 2.2389 77.1981
lradius 143.732
lwrist 59.5729
lhand -22.8379 34.7377
lfingers 7.12502
lthumb 3.59966 -295.313
rfemur 3.0202 2.21779 9.42925
rtibia 40.1838
rfoot -32.7834 -17.9556
rtoes -26.4199
lfemur -17.1359 -17.5863 -1.03651
ltibia 45.908
lfoot -29.0989 -9.27736
ltoes -32.0004
4228
root 23.9998 16.149 -19.6949 -4.90258 -23.1341 -2.51382
lowerback 5.09667 1.00178 5.6189
upperback 2.01309 1.61265 2.80675
thorax -0.706042 0.809248 -0.348286
lowerneck 19.68 16.5224 20.8066
upperneck -19.3484 23.6529 -29.4415
head -2.35039 13.3719 -13.5538
rclavicle -3.05103e-014 -5.1684e-014
rhumerus -19.1707 22.458 -93.4473
rradius 134.528
rwrist 7.77666
rhand -27.893 11.0387
rfingers 7.12502
rthumb -1.2826 -18.9371
lclavicle -3.05103e-014 -5.1684e-014
lhumerus -27.3751 2.38273 77.2374
lradius 143.63
lwrist 59.1084
lhand -22.2146 34.833
lfingers 7.12502
lthumb 4.20154 -295.229
rfemur 2.7321 2.35073 9.86404
rtibia 40.2018
rfoot -32.7179 -18.0274
rtoes -26.1973
lfemur -17.3709 -17.3843 -0.543907
ltibia 45.9089
lfoot -29.0077 -9.34871
ltoes -31.915
4229
root 24.0039 16.151 -19.6988 -4.72795 -23.2314 -2.64764
lowerback 4.99701 1.00851 5.68348
upperback 2.08075 1.61249 2.87198
thorax -0.58044 0.812545 -0.313886
lowerneck 19.1742 16.6948 20.5329
upperneck -19.2351 23.7675 -29.2122
head -2.2806 13.3936 -13.3471
rclavicle -3.59117e-014 3.02153e-014
rhumerus -18.9483 22.3775 -93.2802
rradius 134.385
rwrist 7.80018
rhand -27.6946 10.8044
rfingers 7.12502
rthumb -1.09092 -19.1725
lclavicle -3.59117e-014 3.02153e-014
lhumerus -27.1536 2.3192 77.4055
lradius 143.816
lwrist 59.3083
lhand -22.8628 35.0119
lfingers 7.12502
lthumb 3.5756 -295.038
rfemur 2.56007 2.46653 10.0364
rtibia 40.1963
rfoot -32.5646 -18.2143
rtoes -26.4803
lfemur -17.4775 -17.3166 -0.360482
ltibia 45.9214
lfoot -29.1055 -9.35749
ltoes -32.0358
4230
root 24.01 16.1497 -19.6984 -4.80339 -23.3169 -2.56305
lowerback 4.96194 0.995362 5.60328
upperback 2.16612 1.58326 2.86693
thorax -0.476314 0.800919 -0.271155
lowerneck 19.0867 16.7451 20.5194
upperneck -19.2554 23.8147 -29.2428
head -2.2567 13.4166 -13.336
rclavicle -3.12092e-014 2.3059e-014
rhumerus -18.7392 22.3365 -93.1648
rradius 134.256
rwrist 7.64886
rhand -27.572 10.3673
rfingers 7.12502
rthumb -0.97251 -19.6103
lclavicle -3.12092e-014 2.3059e-014
lhumerus -27.0254 2.36527 77.4518
lradius 143.767
lwrist 59.2827
lhand -22.8552 35.2201
lfingers 7.12502
lthumb 3.5829 -294.83
rfemur 2.57161 2.52642 9.91942
rtibia 40.1805
rfoot -32.3652 -18.4495
rtoes -27.1625
lfemur -17.3789 -17.3149 -0.495934
ltibia 45.9405
lfoot -29.239 -9.33687
ltoes -32.2754
4231
root 24.0201 16.1484 -19.699 -4.87658 -23.3377 -2.5056
lowerback 4.94757 0.930648 5.58558
upperback 2.1927 1.49356 2.87395
thorax -0.4456 0.756964 -0.249046
lowerneck 19.3202 16.7513 20.5087
upperneck -19.3755 23.8372 -29.3093
head -2.31382 13.4473 -13.3963
rclavicle 1.72197e-014 4.77083e-015
rhumerus -18.7393 22.3349 -93.1908
rradius 134.198
rwrist 7.74904
rhand -27.0952 9.94355
rfingers 7.12502
rthumb -0.512048 -20.0356
lclavicle 1.72197e-014 4.77083e-015
lhumerus -27.0532 2.59621 77.4281
lradius 143.664
lwrist 58.857
lhand -22.2211 35.431
lfingers 7.12502
lthumb 4.19528 -294.631
rfemur 2.58907 2.49818 9.79928
rtibia 40.1754
rfoot -32.3416 -18.4187
rtoes -27.3955
lfemur -17.3378 -17.3223 -0.600287
ltibia 45.9528
lfoot -29.2022 -9.29136
ltoes -32.3786
